<svg id="Layer_1" data-name="Layer 1" xmlns="http://www.w3.org/2000/svg" viewBox="0 0 500 500"><defs><style>.cls-1{font-size:9.06px;letter-spacing:0.05em;}.cls-1,.cls-19,.cls-23,.cls-26,.cls-40,.cls-43,.cls-64,.cls-79{fill:#231f20;}.cls-1,.cls-79{font-family:BalooTamma2-Medium, Baloo Tamma 2;}.cls-2{letter-spacing:0.04em;}.cls-3{letter-spacing:0.05em;}.cls-4{letter-spacing:0.04em;}.cls-5{letter-spacing:0.05em;}.cls-6{letter-spacing:0.04em;}.cls-7{letter-spacing:0.05em;}.cls-8{letter-spacing:0.05em;}.cls-9{fill:#fffabc;}.cls-10{fill:#fff68b;}.cls-11{fill:#a59c65;}.cls-12{fill:#806e46;}.cls-13{fill:#566853;}.cls-14{fill:#b1b38a;}.cls-15{fill:#fdca92;}.cls-16{fill:#ffe6b4;}.cls-17{fill:#cabc8a;}.cls-18{fill:#b3b37d;}.cls-19,.cls-23,.cls-26,.cls-40,.cls-43,.cls-64{font-size:7.06px;font-family:BalooTamma2-Regular, Baloo Tamma 2;}.cls-19,.cls-42{letter-spacing:0.06em;}.cls-20{letter-spacing:0.05em;}.cls-21{letter-spacing:0.05em;}.cls-22,.cls-26{letter-spacing:0.06em;}.cls-23,.cls-27{letter-spacing:0.06em;}.cls-24{letter-spacing:0.07em;}.cls-25{letter-spacing:0.05em;}.cls-28{letter-spacing:0.05em;}.cls-29{letter-spacing:0.04em;}.cls-30{letter-spacing:0.04em;}.cls-31{letter-spacing:0.05em;}.cls-32{letter-spacing:0.04em;}.cls-33{letter-spacing:0.05em;}.cls-34{fill:#1f5068;}.cls-35{fill:#006269;}.cls-36{fill:#007e74;}.cls-37{fill:#5b8e74;}.cls-38{letter-spacing:0.05em;}.cls-39{letter-spacing:0.05em;}.cls-40{letter-spacing:0.06em;}.cls-41{letter-spacing:0.07em;}.cls-43{letter-spacing:0.06em;}.cls-44{letter-spacing:0.06em;}.cls-45{letter-spacing:0.05em;}.cls-46{letter-spacing:0.06em;}.cls-47{letter-spacing:0.04em;}.cls-48,.cls-49,.cls-50,.cls-51,.cls-52,.cls-53,.cls-54,.cls-55,.cls-56,.cls-57,.cls-59,.cls-60,.cls-72,.cls-91{fill:none;}.cls-48,.cls-49{stroke:#e1a166;}.cls-48,.cls-49,.cls-50,.cls-51,.cls-52,.cls-72,.cls-91{stroke-miterlimit:10;}.cls-48,.cls-50,.cls-51,.cls-52,.cls-56{stroke-width:2px;}.cls-50{stroke:#c2ae7b;}.cls-51{stroke:#95897f;}.cls-52{stroke:#767179;}.cls-53,.cls-54{stroke:#a13522;}.cls-53,.cls-54,.cls-55,.cls-56,.cls-57,.cls-59,.cls-60{stroke-linecap:round;stroke-linejoin:round;}.cls-53{stroke-width:0.7px;}.cls-54{stroke-width:0.8px;}.cls-55{stroke:#b05f5c;}.cls-56{stroke:#a15c49;}.cls-57{stroke:#a17079;stroke-width:1.5px;}.cls-58{opacity:0.19;}.cls-59{stroke:#231f20;}.cls-59,.cls-60{stroke-width:5px;}.cls-60{stroke:#b87765;}.cls-61{letter-spacing:0.02em;}.cls-62{fill:#9f8b9b;}.cls-63{fill:#87aeb0;}.cls-64{letter-spacing:0.04em;}.cls-65{letter-spacing:0.07em;}.cls-66{letter-spacing:0.02em;}.cls-67{letter-spacing:0.04em;}.cls-68{fill:#7c9e86;}.cls-69{opacity:0.85;}.cls-70{opacity:0.8;}.cls-71{fill:#bfb3a6;}.cls-72{stroke:#c2a997;stroke-width:3px;}.cls-73{letter-spacing:0.04em;}.cls-74{fill:#bc8473;}.cls-75{fill:#e1b184;}.cls-76{fill:#cda968;}.cls-77{fill:#c4c28c;}.cls-78{letter-spacing:0.06em;}.cls-79{font-size:8.41px;}.cls-80{letter-spacing:0.05em;}.cls-81{letter-spacing:0.06em;}.cls-82{letter-spacing:0.05em;}.cls-83{letter-spacing:0.04em;}.cls-84{letter-spacing:0.04em;}.cls-85{letter-spacing:0.04em;}.cls-86{letter-spacing:0.05em;}.cls-87{letter-spacing:0.04em;}.cls-88{letter-spacing:0.07em;}.cls-89{letter-spacing:0.04em;}.cls-90{letter-spacing:0.05em;}.cls-91{stroke:#a88992;stroke-width:4px;}.cls-92{fill:#727c87;}.cls-93{fill:#7e6784;}.cls-94{fill:#605574;}.cls-95{fill:#6f8e92;}</style></defs><title>Artboard 1</title><text class="cls-1" transform="translate(20.86 25.38)">I <tspan class="cls-2" x="5.2" y="0">w</tspan><tspan class="cls-3" x="12.35" y="0">a</tspan><tspan class="cls-4" x="17.44" y="0">k</tspan><tspan x="22.36" y="0">e up and </tspan><tspan class="cls-5" x="61.52" y="0">s</tspan><tspan x="66.18" y="0">ee the d</tspan><tspan class="cls-6" x="101.33" y="0">a</tspan><tspan x="106.3" y="0">y optimisti</tspan><tspan class="cls-7" x="153.19" y="0">c</tspan><tspan class="cls-3" x="158.03" y="0">a</tspan><tspan class="cls-8" x="163.11" y="0">l</tspan><tspan x="165.9" y="0">ly-</tspan></text><circle class="cls-9" cx="39.92" cy="43.67" r="10.24"/><path class="cls-10" d="M23.84,43.46h6.68s-.94,9.71,9.42,10.13c10,.42,9.43-10.13,9.43-10.13H56S56.11,59,39.92,58.65,23.84,43.46,23.84,43.46Z"/><circle class="cls-11" cx="407.65" cy="49.82" r="10.24"/><path class="cls-12" d="M391.57,50.31h6.67s-.93-9.7,9.43-10.13c10-.41,9.42,10.13,9.42,10.13h6.63s.11-15.52-16.07-15.19S391.57,50.31,391.57,50.31Z"/><path class="cls-13" d="M310.92,33.52h-.05v5.07h.07c10-.41,9.43,10.13,9.43,10.13H327S327.1,33.19,310.92,33.52Z"/><circle class="cls-14" cx="310.87" cy="48.06" r="10.24"/><path class="cls-15" d="M135.37,53v5.08c-15.71-.61-15.6-15.18-15.6-15.18h6.67S125.54,52.27,135.37,53Z"/><circle class="cls-16" cx="136.11" cy="42.88" r="10.24"/><circle class="cls-17" cx="223.34" cy="45.35" r="10.24"/><rect class="cls-18" x="221.09" y="29.29" width="4.49" height="32.13" transform="translate(97.48 -144.64) rotate(45)"/><text class="cls-19" transform="translate(25.86 66)">st<tspan class="cls-20" x="6.63" y="0">r</tspan><tspan x="9.67" y="0">ongly</tspan><tspan x="4.59" y="8.47">ag</tspan><tspan class="cls-20" x="12.74" y="8.47">r</tspan><tspan x="15.79" y="8.47">ee</tspan></text><text class="cls-19" transform="translate(123.88 66.84)">ag<tspan class="cls-20" x="8.16" y="0">r</tspan><tspan x="11.21" y="0">ee</tspan></text><text class="cls-19" transform="translate(210.74 66.84)">neut<tspan class="cls-21" x="15.74" y="0">r</tspan><tspan class="cls-22" x="18.83" y="0">al</tspan></text><text class="cls-23" transform="translate(299.33 66.84)">di<tspan class="cls-24" x="6.41" y="0">s</tspan><tspan class="cls-22" x="10.06" y="0">ag</tspan><tspan class="cls-25" x="18.22" y="0">r</tspan><tspan class="cls-22" x="21.27" y="0">ee</tspan></text><text class="cls-26" transform="translate(393.58 66.84)">st<tspan class="cls-25" x="6.63" y="0">r</tspan><tspan x="9.67" y="0">ongly</tspan><tspan class="cls-27"><tspan x="-0.44" y="8.47">di</tspan><tspan class="cls-24" x="5.96" y="8.47">s</tspan><tspan class="cls-22" x="9.62" y="8.47">ag</tspan><tspan class="cls-25" x="17.78" y="8.47">r</tspan><tspan class="cls-22" x="20.83" y="8.47">ee</tspan></tspan></text><text class="cls-1" transform="translate(20.86 90.02)">I o<tspan class="cls-6" x="10.75" y="0">ft</tspan><tspan x="18.57" y="0">en sno</tspan><tspan class="cls-28" x="47.27" y="0">o</tspan><tspan class="cls-29" x="52.78" y="0">z</tspan><tspan x="57.42" y="0">e </tspan><tspan class="cls-30" x="64.91" y="0">t</tspan><tspan x="68.69" y="0">o p</tspan><tspan class="cls-6" x="82" y="0">r</tspan><tspan x="85.88" y="0">olong s</tspan><tspan class="cls-31" x="117.54" y="0">t</tspan><tspan x="121.47" y="0">arting </tspan><tspan class="cls-32" x="150.34" y="0">m</tspan><tspan class="cls-33" x="158.14" y="0">y d</tspan><tspan class="cls-30" x="170.95" y="0">a</tspan><tspan x="175.93" y="0">y-</tspan></text><rect class="cls-34" x="24.96" y="97.76" width="62.94" height="12.48"/><rect class="cls-35" x="115.6" y="97.6" width="51.29" height="12.48"/><rect class="cls-36" x="205.95" y="97.76" width="28.47" height="12.48"/><rect class="cls-37" x="304.29" y="97.76" width="12.48" height="12.48"/><text class="cls-19" transform="translate(44.59 117.61)">al<tspan class="cls-38" x="6.1" y="0">w</tspan><tspan class="cls-39" x="11.6" y="0">a</tspan><tspan class="cls-22" x="15.46" y="0">ys</tspan></text><text class="cls-40" transform="translate(123.14 117.86)">s<tspan class="cls-22" x="3.61" y="0">ometim</tspan><tspan class="cls-41" x="29.56" y="0">e</tspan><tspan class="cls-42" x="33.69" y="0">s</tspan></text><text class="cls-43" transform="translate(210.7 117.61)">r<tspan class="cls-42" x="3.08" y="0">a</tspan><tspan class="cls-20" x="7.03" y="0">r</tspan><tspan class="cls-27" x="10.08" y="0">ely</tspan></text><text class="cls-26" transform="translate(302.13 118.02)">n<tspan class="cls-44" x="4.3" y="0">e</tspan><tspan class="cls-45" x="8.36" y="0">v</tspan><tspan x="12.22" y="0">er</tspan></text><text class="cls-1" transform="translate(20.72 134.64)">I sno<tspan class="cls-28" x="20.88" y="0">o</tspan><tspan class="cls-29" x="26.39" y="0">z</tspan><tspan x="31.03" y="0">e be</tspan><tspan class="cls-7" x="49.29" y="0">c</tspan><tspan x="54.13" y="0">au</tspan><tspan class="cls-46" x="64.73" y="0">s</tspan><tspan x="69.39" y="0">e I a</tspan><tspan class="cls-8" x="87.17" y="0">l</tspan><tspan x="89.96" y="0">lo</tspan><tspan class="cls-47" x="98.28" y="0">t</tspan><tspan class="cls-6" x="102.11" y="0">t</tspan><tspan x="105.89" y="0">ed the time </tspan><tspan class="cls-30" x="157.86" y="0">t</tspan><tspan x="161.64" y="0">o do </tspan><tspan class="cls-46" x="182.77" y="0">s</tspan><tspan class="cls-31" x="187.43" y="0">o</tspan><tspan x="193.01" y="0">-</tspan></text><path class="cls-48" d="M35.6,144.57S52,145.41,52,160.44"/><path class="cls-49" d="M35.6,147.55s13,.67,13,12.57"/><path class="cls-48" d="M40.29,171.89S23.85,171.05,23.84,156"/><path class="cls-49" d="M40.29,168.59s-13-.67-13-12.57"/><path class="cls-50" d="M125.81,145.55s16.43.84,16.44,15.87"/><path class="cls-50" d="M132.22,172.63s-16.43-.84-16.44-15.87"/><path class="cls-51" d="M219.11,146.83s15,.77,15,14.49"/><path class="cls-51" d="M224.46,173s-15-.77-15-14.49"/><path class="cls-52" d="M323.12,160.7s-14.94-1.59-14.2-15.29"/><path class="cls-52" d="M294.76,158s14.64,3.35,12.28,16.87"/><text class="cls-19" transform="translate(25.69 181.82)">al<tspan class="cls-38" x="6.1" y="0">w</tspan><tspan class="cls-39" x="11.6" y="0">a</tspan><tspan class="cls-22" x="15.46" y="0">ys</tspan></text><text class="cls-40" transform="translate(111.36 181.82)">s<tspan class="cls-22" x="3.61" y="0">ometim</tspan><tspan class="cls-41" x="29.56" y="0">e</tspan><tspan class="cls-42" x="33.69" y="0">s</tspan></text><text class="cls-43" transform="translate(209.57 181.82)">r<tspan class="cls-42" x="3.08" y="0">a</tspan><tspan class="cls-20" x="7.03" y="0">r</tspan><tspan class="cls-22" x="10.08" y="0">ely</tspan></text><text class="cls-26" transform="translate(301.03 181.82)">n<tspan class="cls-44" x="4.3" y="0">e</tspan><tspan class="cls-45" x="8.36" y="0">v</tspan><tspan x="12.22" y="0">er</tspan></text><text class="cls-1" transform="translate(20.86 198.04)">I let a sma<tspan class="cls-8" x="44.34" y="0">l</tspan><tspan x="47.13" y="0">l mishap affect the enti</tspan><tspan class="cls-30" x="149.1" y="0">r</tspan><tspan class="cls-33" x="152.98" y="0">e </tspan><tspan class="cls-6" x="160.48" y="0">r</tspan><tspan class="cls-31" x="164.35" y="0">e</tspan><tspan x="169.62" y="0">st of </tspan><tspan class="cls-32" x="192.35" y="0">m</tspan><tspan class="cls-33" x="200.15" y="0">y d</tspan><tspan class="cls-30" x="212.96" y="0">a</tspan><tspan x="217.94" y="0">y-</tspan></text><path class="cls-53" d="M29.57,230.17c.65-.42-4,.42-1-1.55.71-.46,1.19,2.21,2.2,1.55,4.21-2.74-6.42-.66-2.2-3.4,0,0,1.43,4.17,2.61,3.4,3-1.93-4.33-2.91-2.61-4,0,0,1.16,5.24,3,4,4.84-3.15-3-4.67-3-4.67.71-.46,3.19,6.87,6.58,4.67,0,0-14.18-5.22-6.59-10.15.71-.46,2.1,13.56,7.36,10.15,1.09-.71-7.36-11.33-7.36-11.33,6.5-4.22,9.13,12.27,10.57,11.33l-10.58-16.3c.3-.19,6.21,22.46,15.69,16.3,6.51-4.23-13.58-20.91-13.58-20.91,8.79-5.7,7.05,28.57,18.86,20.91,13-8.43-24.65-13.73-13.58-20.92,0,0,3.43,27.77,14,20.92,13-8.43-26.12-12.77-13.58-20.92,9.36-6.08,10.33,19.59,14.93,16.61,0,0-16.42-13-10.78-16.61,6.45-4.19,4.55,15,10.77,11,1.69-1.09-15.15-5.79-7.14-11,3.4-2.2,4,12.22,7.14,10.14,7.59-4.92-12.95-6-6.58-10.14,2.87-1.86,5.49,5.34,6.58,4.64,2.41-1.57-3-4.64-3-4.64"/><path class="cls-54" d="M28.71,209.29c1.82,1.82.78-.78.78-.78,1,1-1.2,3.59-1.2,3.59,3.35,3.36,1.64-5.41,3.53-3.53,2.84,2.84-5.52,5.43-4,7,.3.3,4-9.15,6.58-6.58,4.32,4.33-5.81,10.76-5.81,10.76C36,227.07,32,201.66,39.36,209c6.38,6.38-17.75,7.64-11.36,14,5.85,5.85,6.42-21.42,13.91-13.92.85.85-19.48,8-12.57,14.94.59.6,6.44-26.17,16.3-16.31,9,9-25.38,10.64-16.34,19.68.45.45,7.28-30.33,18.81-18.8,9.52,9.52-28.88,12-18.61,22.32,7.31,7.31,16.13-25.58,20.86-20.85,1,1-18.84,21.14-18.84,21.14,1.6,1.6,12.55-26.71,19.64-19.63,9.29,9.29-19.1,17.93-16.87,20.16,6.92,6.92,13.92-18.86,16.39-16.39,4.7,4.69-18.26,11.54-13.66,16.14,8.46,8.46,6.33-23.41,14.87-14.88,0,0-17,8-11.31,13.64,1.67,1.67,3-17.77,10.39-10.4,4.09,4.09-9.12,9.39-7.67,10.84,5.57,5.58,7.79-9.55,8.67-8.67s-5.35,9.07-5,9.41c3.59,3.59,2.74-7.22,5-5,0,0-3.63,2.67-1.95,4.35s.14-.4.28-.27"/><path class="cls-53" d="M30.76,211.33c3.49,5.59,0-7.8,3.54-2.21.38.61-4.7.69-3.54,2.54,3.66,5.86,1.35-6.9,4.07-2.54C37.9,214,28,215.47,30.76,220c6.6,10.56,9.55-23.34,17.36-10.85.69,1.12-24.47,9.08-17.36,20.46,6.47,10.35,14.36-17.78,18.31-11.45.9,1.43-11.94,6-8.06,12.21,4.9,7.85,4.53-10.72,8.07-5"/><path class="cls-55" d="M116,213.54c.13.1,8.21-10,8.3-9.89,2.49,2.09-12.19,11.41-8.24,14.73,1.22,1,2.18-5.89,3.8-4.53,2,1.7-5.29,6.29-3.26,8,2.61,2.19,12.86-19.29,14.81-17.65,2.95,2.47-15.05,14-11.17,17.21,3.11,2.6,4.23-13.82,8.55-10.19,3.18,2.67-11.92,11.35-8.21,14.47,4.33,3.63,9-18.9,13-15.5,3,2.54-14.54,14.33-10.57,17.66,6,5.06,11.43-21.1,15.11-18,4.82,4-19.65,18.93-15.45,22.45,6.22,5.22,9.43-24.49,16-19,5.76,4.83-16.41,16.29-12.7,19.4,4.65,3.9,11.5-22.37,15.77-18.79,2.95,2.47-12,13.61-8.76,16.34,2.28,1.92,5.65-11.45,8-9.5,1.54,1.29-2.45,5.52-.81,6.9,2.11,1.76-.36-2.75,1.21-1.43.89.74-1.13,3.4-.15,4.22.54.45.24-1.77,1-1.15"/><path class="cls-56" d="M300,233.1s-.68-1.09-.68-1.09,9.46,1.13,9.71,1l-9.7-15.53,19.51,14.71-16.29-26.07,22.22,20.34-11.88-19c.28-.18,12.13,4,12.45,3.76,0,0-2.82-4.2-2.68-4.29"/><path class="cls-57" d="M208.9,232.28c.64,0-.76-23.39,0-23.39s4.84,24.33,5.43,24.33-.63-25.84,0-25.84,3.94,24.51,4.52,24.51-.72-23.6,0-23.6,4.7,25.88,5.47,25.88c.54,0-.57-27.66,0-27.66s4.76,24.55,5.44,24.55-.52-26.16,0-26.16"/><g class="cls-58"><path class="cls-59" d="M391.4,204.92c.15.14,5.56-8,6.8-6.8,0,0-.64,3.59-.08,4.14.09.09,1.95-2.28,2.11-2.11s.63,2.75,1,3.17c.59.59.26-.73.49-.5a23.18,23.18,0,0,0,2.55,1.48c.11.1,1.12-1.37,1.24-1.24.72.72,7.15-3.74,7.75-3.14.2.21.16-.69.43-.42,0,0,.33,3.3.34,3.32.24.23,2-2.25,2.12-2.12s-.06,3.27.2,3.53a18.54,18.54,0,0,1,2.13-2.12c.08.08,1.13,3.13,1.36,3.35s3.57-5.43,4.5-4.5c.28.28-2.26,4.6-1.91,4.95,0,0,1.55-2.61,2.09-2.08.38.38-6.13,9.07-5.27,9.92.25.26,1.16-1.39,1.28-1.27s.89,2.72,1.09,2.92c.62.62.34-1.51.93-.93.89.89-1.94,5.56-1.3,6.2s.72-.93.83-.82c.84.85-3.38,6.25-2.6,7,.27.28.09-.12.11-.1.28.28-1.21,4.52-.8,4.93.86.87,3.29-4.14,3.72-3.71"/><path class="cls-59" d="M392,204c.08.07,2.76-3.94,3.35-3.35,0,0-.79,3.7-.21,4.28.14.14.13-.68.4-.41s-3.55,5.93-2.63,6.85c.56.56.13-.57.34-.35.83.83-2.09,5.9-2,6s1.58-1.91,1.74-1.74,3.05,1.05,3.31,1.31.35-1,.66-.66c0,0-.59,4.22-.58,4.24.37.36.08-.5.29-.28s-1.44,4.43-1.07,4.8c0,0,.34-.74.54-.54s-3,6.73-2.5,7.21c0,0,1.08-1.82,1.45-1.45.16.16-.22,2.86,0,3.06,0,0,3.95-5.84,4.9-4.89.14.13.41,3.64.71,3.94s.48-.65.57-.56a27.49,27.49,0,0,1,3.16.85c.36.36,0-.73.39-.39.59.59,3.72.33,4.15.76s.16-.27.22-.22c.78.78,5.85-2.86,6.57-2.14.33.33.48-.53.5-.51.17.18,2.48,1.16,2.73,1.42s.48-.78.63-.63"/></g><g class="cls-58"><path class="cls-60" d="M391.68,204.74c.13.13,5-7.23,6.12-6.13.06.06-2,4.6-1.27,5.34.43.42,4.25-5.92,5.09-5.09.17.18-1.35,4.32-.73,4.94,1.22,1.22,3.25-4.19,3.72-3.72s2.17,1.76,2.22,1.81,1.07-1.32,1.19-1.2c.45.45,4.78-.91,5.15-.53.21.2.2-.74.47-.47l1.56,2.11c.24.23-.11-.16,0,0s1.94,1.39,2.14,1.59c0,0,3.86-4.88,4.37-4.37.18.17-3.05,6.8-2.57,7.29,0,0,1.63-2.63,2.13-2.13.29.29-2.48,4.78-2.11,5.15,0,0,.47-1.16.82-.82.16.17-.44,4.38-.08,4.74s1.67-2.08,1.87-1.87c0,0,2.56,1.07,2.75,1.26.43.43.32-1.13.73-.73,1.25,1.26-4.25,7.35-3.34,8.26s1.5-1.78,1.64-1.65c1.11,1.11-5.37,7.77-4.36,8.79.84.84,4-4.15,4.1-4.1.53.54-5.19,7.74-4.39,8.53,1.09,1.1,4.45-5.53,5-5"/><path class="cls-60" d="M390.75,205.28c.13.13,5-7.14,6.05-6.05.05.05-1.12,4-.5,4.57.14.14.08-.62.35-.35s-3,5.55-2.18,6.39c.49.49.93-1.31,1.12-1.12,1,1-3.35,7.1-3.21,7.24s2.23-2.69,2.46-2.46c.83.83-4.84,8.05-4.14,8.75.86.86,3.84-6.07,5-5,0,0,.31,3.34.32,3.35.31.31.27-.63.45-.45s-2.52,5.34-2.07,5.8c0,0,1.46-2.05,1.76-1.75s-5.46,8.84-4.8,9.5c.12.11,4.65-7,5.81-5.8.18.19-.68,3.25-.45,3.49,0,0-.12-.36.12-.12s3.35.74,3.63,1,.21-.36.28-.28a27.32,27.32,0,0,1,3.2.81c.35.35,0-.62.3-.3.71.71,4.5-.61,5-.1,1.35,1.35,4.22-4.68,4.45-4.44.54.54-.86,4.28-.36,4.78.89.89,4.4-4.51,4.45-4.45.26.25-.74,4.13-.37,4.51,1.13,1.13,4.63-5.74,5.18-5.18"/></g><g class="cls-58"><path class="cls-60" d="M419.88,198.9c.14.14.21-.27.24-.24s.59,2.87.7,3c.32.32.23-.52.38-.37"/><path class="cls-60" d="M413.34,203.51c.21.21-.09-.17,0,0s1.84.85,2,1,0-.16.09-.08c.37.38,4.52,0,4.64.17.33.32,2.22-2.61,2.41-2.42"/><path class="cls-60" d="M399.18,200.44c.29.29-.2-.23,0,0,.37.37,2.6,1.28,3,1.67,0,0,.06-.14.1-.1s2.59,1.22,2.89,1.52-.16-.24,0,0,1.81,2.08,2.16,2.43,1.7-1.71,1.7-1.71"/><path class="cls-60" d="M395.11,199.54s1.54-2.17,1.85-1.86c.05,0-.81,3.72-.23,4.3.09.1-.08-.29.11-.11s-2.66,5.29-1.87,6.08,1.74-2.44,2.09-2.09c1.3,1.3-4.85,8.54-4.68,8.71s2.13-2.58,2.35-2.36c.59.59-2.4,6-1.91,6.53.32.33.84-1.68,1.26-1.26,0,0-1.5,5.13-1.48,5.15.36.36.08-.5.29-.29s-.89,4-.57,4.31c0,0,0-.24.11-.11s.31,3.87.57,4.14c0,0,.63-1.18.91-.91"/><path class="cls-60" d="M420.39,200.41c.09.09,1-1.57,1.28-1.27,0,0,.52,4.17.6,4.24s.41-1,.71-.72c.79.79-1.2,5.68-.73,6.15,0,0,1.34-1.57,1.45-1.46.31.31-2.16,5.4-1.5,6.05.2.21,0-.69.34-.34,0,0,.23,4.82.23,4.82s0-.64.33-.33"/><path class="cls-60" d="M418.91,224.39c.55.55,4-4.29,4.17-4.17"/><path class="cls-60" d="M410.09,228.12c.17.18,1.3-1.46,1.38-1.38.41.4-.53,3.72-.3,3.94.08.09.62-1.67,1.15-1.14"/><path class="cls-60" d="M402.66,228.27h0a19.15,19.15,0,0,0,.71,2.34c.12.12,2-2.17,2.09-2.09.28.28,1.86,2.76,2,2.85s.3-.44.37-.37,1.34,1,1.61,1.26.17-.27.22-.21c.42.41,1.81,2.78,1.93,2.9.74.74,1.49-2.06,1.78-1.77"/><path class="cls-60" d="M399,228.33c.36.36,1.85-2.34,2.09-2.09"/><path class="cls-60" d="M394.54,229.62c.28.28,1.89-2.32,2.1-2.1.39.38,1,2.83,1.43,3.23,0,0,0-.06,0,0l2.23,2.17c.36.36.51-1.12.82-.81"/><path class="cls-60" d="M391.9,228.35s1.73-2.46,2.09-2.1c.05.05-1.09,3.93-.47,4.54.09.1-.08-.29.11-.11s-.31,3.47.18,4c.24.24,1.84-2,1.93-1.92"/></g><text class="cls-19" transform="translate(25.85 243.1)">st<tspan class="cls-20" x="6.63" y="0">r</tspan><tspan x="9.67" y="0">ongly</tspan><tspan x="4.59" y="8.47">ag</tspan><tspan class="cls-20" x="12.74" y="8.47">r</tspan><tspan x="15.79" y="8.47">ee</tspan></text><text class="cls-19" transform="translate(121.7 243.1)">ag<tspan class="cls-20" x="8.16" y="0">r</tspan><tspan x="11.21" y="0">ee</tspan></text><text class="cls-19" transform="translate(209.46 243.1)">neut<tspan class="cls-21" x="15.74" y="0">r</tspan><tspan class="cls-22" x="18.83" y="0">al</tspan></text><text class="cls-23" transform="translate(297.5 243.1)">di<tspan class="cls-24" x="6.41" y="0">s</tspan><tspan class="cls-22" x="10.06" y="0">ag</tspan><tspan class="cls-25" x="18.22" y="0">r</tspan><tspan class="cls-22" x="21.27" y="0">ee</tspan></text><text class="cls-26" transform="translate(394.71 243.1)">st<tspan class="cls-25" x="6.63" y="0">r</tspan><tspan x="9.67" y="0">ongly</tspan><tspan class="cls-27"><tspan x="-0.44" y="8.47">di</tspan><tspan class="cls-24" x="5.96" y="8.47">s</tspan><tspan class="cls-22" x="9.62" y="8.47">ag</tspan><tspan class="cls-25" x="17.78" y="8.47">r</tspan><tspan class="cls-22" x="20.83" y="8.47">ee</tspan></tspan></text><text class="cls-1" transform="translate(20.72 268.15)">I stick <tspan class="cls-30" x="28.56" y="0">t</tspan><tspan x="32.34" y="0">o a </tspan><tspan class="cls-30" x="47.5" y="0">r</tspan><tspan x="51.38" y="0">outine</tspan><tspan class="cls-61" x="79.82" y="0">/</tspan><tspan class="cls-5" x="82.9" y="0">s</tspan><tspan class="cls-33" x="87.56" y="0">chedule-</tspan></text><circle class="cls-62" cx="27.91" cy="284.11" r="2.16"/><rect class="cls-62" x="31.9" y="283.03" width="29.95" height="2.16"/><rect class="cls-62" x="36.18" y="289.99" width="25.67" height="1.08"/><circle class="cls-62" cx="33.52" cy="290.53" r="1.63"/><rect class="cls-62" x="36.18" y="295.92" width="25.67" height="1.08"/><circle class="cls-62" cx="33.52" cy="296.46" r="1.63"/><circle class="cls-63" cx="114.25" cy="293.18" r="2.16"/><rect class="cls-63" x="115.92" y="282.07" width="29.95" height="2.16" transform="translate(-129.06 110.72) rotate(-31.63)"/><circle class="cls-63" cx="122.86" cy="280.66" r="1.63"/><rect class="cls-63" x="122.91" y="290.47" width="25.67" height="1.08" transform="translate(216.32 -19.83) rotate(39.54)"/><circle class="cls-63" cx="124.47" cy="297.55" r="1.63"/><rect class="cls-63" x="125.82" y="289.5" width="25.67" height="1.08" transform="translate(-126.44 108.18) rotate(-30)"/><text class="cls-19" transform="translate(33.52 307.56)">true</text><text class="cls-64" transform="translate(123.99 307.56)">f<tspan class="cls-42" x="3.06" y="0">al</tspan><tspan class="cls-65" x="9.17" y="0">s</tspan><tspan class="cls-42" x="12.78" y="0">e</tspan></text><text class="cls-1" transform="translate(20.48 323.77)">I b<tspan class="cls-6" x="10.73" y="0">r</tspan><tspan x="14.61" y="0">eak </tspan><tspan class="cls-66" x="32.23" y="0">f</tspan><tspan x="36.13" y="0">or lunch with no in</tspan><tspan class="cls-30" x="117.57" y="0">t</tspan><tspan x="121.35" y="0">e</tspan><tspan class="cls-67" x="126.58" y="0">r</tspan><tspan class="cls-33" x="130.51" y="0">ruptions-</tspan></text><polygon class="cls-68" points="25.93 332.92 29.35 332.92 38.15 348.35 30.2 357.64 25.93 357.64 25.93 332.92"/><polygon class="cls-68" points="47.12 332.92 37.14 345.77 49.28 357.64 50.89 357.64 50.89 332.92 47.12 332.92"/><g class="cls-69"><polygon class="cls-68" points="117.45 332.92 120.87 332.92 129.67 348.35 121.72 357.64 117.45 357.64 117.45 332.92"/></g><g class="cls-69"><polygon class="cls-68" points="138.64 332.92 128.67 345.77 140.8 357.64 142.42 357.64 142.42 332.92 138.64 332.92"/></g><g class="cls-70"><polygon class="cls-71" points="212.3 329.5 216.02 329.5 225.61 346.31 216.95 356.43 212.3 356.43 212.3 329.5"/></g><g class="cls-70"><polygon class="cls-71" points="224.47 331.42 213.45 348.13 226.67 361.06 228.44 361.06 228.44 331.42 224.47 331.42"/></g><polygon class="cls-72" points="303.86 329.56 307.97 329.56 318.57 348.14 309 359.32 303.86 359.32 303.86 329.56"/><polygon class="cls-72" points="314.54 326.59 302.35 345.06 316.97 359.34 318.91 359.34 318.91 326.59 314.54 326.59"/><text class="cls-19" transform="translate(26.78 367.43)">al<tspan class="cls-38" x="6.1" y="0">w</tspan><tspan class="cls-39" x="11.6" y="0">a</tspan><tspan class="cls-22" x="15.46" y="0">ys</tspan></text><text class="cls-40" transform="translate(110.89 367.43)">s<tspan class="cls-22" x="3.61" y="0">ometim</tspan><tspan class="cls-41" x="29.56" y="0">e</tspan><tspan class="cls-42" x="33.69" y="0">s</tspan></text><text class="cls-43" transform="translate(210.31 367.43)">r<tspan class="cls-42" x="3.08" y="0">a</tspan><tspan class="cls-20" x="7.03" y="0">r</tspan><tspan class="cls-22" x="10.08" y="0">ely</tspan></text><text class="cls-26" transform="translate(302.35 367.43)">n<tspan class="cls-44" x="4.3" y="0">e</tspan><tspan class="cls-45" x="8.36" y="0">v</tspan><tspan x="12.22" y="0">er</tspan></text><text class="cls-1" transform="translate(20.28 387.26)">I s<tspan class="cls-6" x="9.82" y="0">t</tspan><tspan class="cls-3" x="13.6" y="0">op and p</tspan><tspan class="cls-73" x="50.79" y="0">r</tspan><tspan x="54.71" y="0">ai</tspan><tspan class="cls-46" x="62.53" y="0">s</tspan><tspan x="67.19" y="0">e </tspan><tspan class="cls-32" x="74.68" y="0">m</tspan><tspan class="cls-33" x="82.48" y="0">y</tspan><tspan class="cls-5" x="87.52" y="0">s</tspan><tspan x="92.17" y="0">elf th</tspan><tspan class="cls-6" x="116.01" y="0">r</tspan><tspan x="119.89" y="0">oughout the d</tspan><tspan class="cls-30" x="181.52" y="0">a</tspan><tspan class="cls-33" x="186.5" y="0">y-</tspan></text><path class="cls-74" d="M26.78,405.57a10.93,10.93,0,1,1,10.88,10.94A11,11,0,0,1,26.78,405.57ZM44.92,411l.1.09a6.84,6.84,0,0,0,.9-1.34,10.61,10.61,0,0,0,.4-7.3,8.9,8.9,0,0,0-14.2-3.94,9.1,9.1,0,0,0-3.21,9.09c.58,3.18,2.75,5,5.69,6A6.92,6.92,0,0,0,42.42,411a4,4,0,0,0,.63-2.55c-.45.33-.76.76-1.16,1.1a6.37,6.37,0,0,1-5.59,1.69,4.81,4.81,0,0,1-2.81-7.69,7.08,7.08,0,0,1,8.78-1.26,6.25,6.25,0,0,1,2.82,5.32C45.13,408.72,45,409.87,44.92,411Zm-7.5-1.56a4.09,4.09,0,0,0,4-3,2.37,2.37,0,0,0-2-3.24,4.65,4.65,0,0,0-4.14,1.49,2.81,2.81,0,0,0-.49,3.23A2.54,2.54,0,0,0,37.42,409.46Z"/><path class="cls-75" d="M121.35,405.57a9,9,0,1,1,9,9A9.05,9.05,0,0,1,121.35,405.57Zm15,4.49.08.08a5.64,5.64,0,0,0,.75-1.1,8.79,8.79,0,0,0,.33-6,7.34,7.34,0,0,0-11.71-3.25,7.5,7.5,0,0,0-2.64,7.49c.48,2.62,2.26,4.14,4.69,5a5.69,5.69,0,0,0,6.44-2.2,3.25,3.25,0,0,0,.52-2.1c-.37.26-.63.62-1,.9a5.21,5.21,0,0,1-4.6,1.39,4,4,0,0,1-2.32-6.34,5.85,5.85,0,0,1,7.24-1,5.14,5.14,0,0,1,2.32,4.39C136.47,408.17,136.35,409.12,136.3,410.06Zm-6.18-1.28a3.36,3.36,0,0,0,3.34-2.5,2,2,0,0,0-1.68-2.68,3.84,3.84,0,0,0-3.41,1.23,2.32,2.32,0,0,0-.4,2.67A2.1,2.1,0,0,0,130.12,408.78Z"/><path class="cls-76" d="M214,406.3a6.74,6.74,0,1,1,6.71,6.75A6.77,6.77,0,0,1,214,406.3Zm11.19,3.36.06.06a4.41,4.41,0,0,0,.56-.82,6.55,6.55,0,0,0,.24-4.51,5.48,5.48,0,0,0-8.75-2.43,5.6,5.6,0,0,0-2,5.61,4.76,4.76,0,0,0,3.51,3.71,4.28,4.28,0,0,0,4.82-1.65,2.5,2.5,0,0,0,.39-1.57,7.79,7.79,0,0,0-.72.68,3.93,3.93,0,0,1-3.44,1A3,3,0,0,1,218.1,405a4.38,4.38,0,0,1,5.41-.78,3.85,3.85,0,0,1,1.74,3.29C225.28,408.25,225.19,409,225.15,409.66Zm-4.62-1a2.51,2.51,0,0,0,2.49-1.87,1.46,1.46,0,0,0-1.25-2,2.87,2.87,0,0,0-2.56.92,1.75,1.75,0,0,0-.3,2A1.58,1.58,0,0,0,220.53,408.7Z"/><path class="cls-77" d="M309.12,406.74a4.51,4.51,0,1,1,4.49,4.52A4.52,4.52,0,0,1,309.12,406.74ZM316.6,409l0,0a2.41,2.41,0,0,0,.37-.55,4.37,4.37,0,0,0,.17-3,3.67,3.67,0,0,0-5.86-1.62,3.75,3.75,0,0,0-1.32,3.75,3.16,3.16,0,0,0,2.34,2.48,2.86,2.86,0,0,0,3.23-1.1,1.68,1.68,0,0,0,.26-1.06c-.19.14-.32.32-.48.46a2.62,2.62,0,0,1-2.31.69,2,2,0,0,1-1.15-3.17,2.92,2.92,0,0,1,3.62-.52,2.57,2.57,0,0,1,1.16,2.2A13.63,13.63,0,0,1,316.6,409Zm-3.09-.64a1.68,1.68,0,0,0,1.67-1.26,1,1,0,0,0-.84-1.34,1.93,1.93,0,0,0-1.71.62,1.16,1.16,0,0,0-.2,1.33A1.05,1.05,0,0,0,313.51,408.35Z"/><text class="cls-19" transform="translate(26.78 425.45)">al<tspan class="cls-38" x="6.1" y="0">w</tspan><tspan class="cls-39" x="11.6" y="0">a</tspan><tspan class="cls-22" x="15.46" y="0">ys</tspan></text><text class="cls-40" transform="translate(112.58 425.45)">s<tspan class="cls-22" x="3.61" y="0">ometim</tspan><tspan class="cls-41" x="29.56" y="0">e</tspan><tspan class="cls-42" x="33.69" y="0">s</tspan></text><text class="cls-43" transform="translate(211.51 425.57)">r<tspan class="cls-42" x="3.08" y="0">a</tspan><tspan class="cls-38" x="7.03" y="0">r</tspan><tspan class="cls-78" x="10.08" y="0">ely</tspan></text><text class="cls-26" transform="translate(304.63 425.45)">n<tspan class="cls-44" x="4.3" y="0">e</tspan><tspan class="cls-45" x="8.36" y="0">v</tspan><tspan x="12.22" y="0">er</tspan></text><text class="cls-79" transform="translate(21.66 439.73)"><tspan class="cls-80">I need a</tspan><tspan x="31.57" y="0"> </tspan><tspan class="cls-81" x="33.26" y="0">“</tspan><tspan class="cls-82" x="36.31" y="0">wind d</tspan><tspan class="cls-83" x="62.98" y="0">o</tspan><tspan class="cls-82" x="68.08" y="0">w</tspan><tspan class="cls-84" x="74.77" y="0">n</tspan><tspan x="79.78" y="0">”</tspan><tspan class="cls-80" x="82.35" y="0" xml:space="preserve"> period a</tspan><tspan class="cls-85" x="117.72" y="0">ft</tspan><tspan class="cls-80" x="124.97" y="0">er </tspan><tspan class="cls-86" x="135.62" y="0">e</tspan><tspan class="cls-87" x="140.44" y="0">v</tspan><tspan class="cls-80" x="145.08" y="0">e</tspan><tspan class="cls-88" x="149.93" y="0">r</tspan><tspan class="cls-80" x="153.76" y="0">y d</tspan><tspan class="cls-89" x="165.65" y="0">a</tspan><tspan class="cls-90" x="170.26" y="0">y-</tspan></text><circle class="cls-91" cx="312.8" cy="458.61" r="11.38"/><path class="cls-92" d="M224.3,467.28c-.23-.48-.48-.56-1-.44a8.53,8.53,0,0,1-9.64-4.35c-.23-.68-.52-1.34-.68-2a8.41,8.41,0,0,1,7.07-10.22l.06-.09c1.26-1.46,2.47-2.94,3.67-4.44A12.65,12.65,0,0,0,212.2,449a13.08,13.08,0,0,0-2.75,15.58,12.75,12.75,0,0,0,10.07,7.13,12.15,12.15,0,0,0,6-.59c.44-.17.52-.39.29-.81C225.3,469.29,224.77,468.3,224.3,467.28Z"/><path class="cls-92" d="M233.07,452.81a12.82,12.82,0,0,0-7.32-6.55c-1.08,1.35-2.16,2.68-3.26,4l.26,0a8.1,8.1,0,0,1,5.72,4,.71.71,0,0,0,1,.35c1.08-.37,2.18-.69,3.28-1C233.24,453.5,233.3,453.27,233.07,452.81Z"/><path class="cls-92" d="M229.21,456.43c1.35-.41,2.54-.79,3.75-1.12.48-.13.61.24.67.63a12.88,12.88,0,0,1-.37,5.31c-.18.62-.43,1.22-.66,1.82-.15.39-.41.45-.75.23-1-.64-2-1.27-3-1.95a.82.82,0,0,1-.21-.74A9.19,9.19,0,0,0,229,457,1.69,1.69,0,0,1,229.21,456.43Z"/><path class="cls-92" d="M227.09,467c-.27-.54-.54-1.09-.84-1.61a.63.63,0,0,1,.18-.92c1-.82,1-.84,2-.15.81.52,1.62,1,2.44,1.54.47.29.53.56.12.93l-2.23,2c-.4.38-.65.23-.86-.21S227.37,467.5,227.09,467Z"/><path class="cls-93" d="M133.51,467.28c-.23-.48-.48-.56-1-.44a8.54,8.54,0,0,1-9.64-4.35,19.27,19.27,0,0,1-.67-2,8.4,8.4,0,0,1,7.06-10.22l.06-.09c1.26-1.46,2.47-2.94,3.68-4.44a12.67,12.67,0,0,0-11.6,3.26,13.1,13.1,0,0,0-2.75,15.58,12.76,12.76,0,0,0,10.07,7.13,12.14,12.14,0,0,0,6-.59c.44-.17.52-.39.29-.81C134.51,469.29,134,468.3,133.51,467.28Z"/><path class="cls-92" d="M142.28,452.81a12.82,12.82,0,0,0-7.32-6.55q-1.61,2-3.26,4l.26,0a8.1,8.1,0,0,1,5.72,4,.71.71,0,0,0,1,.35c1.08-.37,2.18-.69,3.28-1C142.45,453.5,142.51,453.27,142.28,452.81Z"/><path class="cls-94" d="M138.42,456.43c1.35-.41,2.54-.79,3.75-1.12.48-.13.62.24.67.63a12.88,12.88,0,0,1-.37,5.31c-.17.62-.43,1.22-.66,1.82-.15.39-.41.45-.75.23-1-.64-2.05-1.27-3.05-1.95a.85.85,0,0,1-.21-.74,9.19,9.19,0,0,0,.44-3.57A1.69,1.69,0,0,1,138.42,456.43Z"/><path class="cls-94" d="M136.3,467c-.27-.54-.54-1.09-.83-1.61a.62.62,0,0,1,.17-.92c1-.82,1-.84,2-.15.81.52,1.62,1,2.45,1.54.47.29.52.56.11.93l-2.23,2c-.4.38-.64.23-.85-.21S136.58,467.5,136.3,467Z"/><path class="cls-93" d="M40.55,467.28c-.22-.48-.47-.56-1-.44a8.55,8.55,0,0,1-9.65-4.35c-.22-.68-.51-1.34-.67-2a8.4,8.4,0,0,1,7.06-10.22l.07-.09q1.88-2.19,3.67-4.44A12.65,12.65,0,0,0,28.46,449a13.08,13.08,0,0,0-2.75,15.58,12.75,12.75,0,0,0,10.07,7.13,12.1,12.1,0,0,0,6-.59c.45-.17.53-.39.3-.81C41.56,469.29,41,468.3,40.55,467.28Z"/><path class="cls-95" d="M49.33,452.81A12.85,12.85,0,0,0,42,446.26c-1.08,1.35-2.16,2.68-3.27,4l.27,0a8.06,8.06,0,0,1,5.71,4,.71.71,0,0,0,1,.35c1.08-.37,2.18-.69,3.28-1C49.5,453.5,49.56,453.27,49.33,452.81Z"/><path class="cls-92" d="M45.47,456.43c1.35-.41,2.54-.79,3.75-1.12.48-.13.61.24.67.63a12.72,12.72,0,0,1-.38,5.31,17.22,17.22,0,0,1-.66,1.82c-.14.39-.4.45-.74.23-1-.64-2.06-1.27-3-1.95a.82.82,0,0,1-.21-.74,9.19,9.19,0,0,0,.44-3.57A1.69,1.69,0,0,1,45.47,456.43Z"/><path class="cls-94" d="M43.35,467c-.28-.54-.54-1.09-.84-1.61a.62.62,0,0,1,.18-.92c1-.82,1-.84,2-.15.81.52,1.62,1,2.44,1.54.47.29.53.56.12.93l-2.23,2c-.4.38-.65.23-.86-.21S43.63,467.5,43.35,467Z"/><text class="cls-19" transform="translate(23.23 479.94)">st<tspan class="cls-20" x="6.63" y="0">r</tspan><tspan x="9.67" y="0">ongly</tspan><tspan x="4.59" y="8.47">ag</tspan><tspan class="cls-20" x="12.74" y="8.47">r</tspan><tspan x="15.79" y="8.47">ee</tspan></text><text class="cls-19" transform="translate(121.7 479.94)">ag<tspan class="cls-20" x="8.16" y="0">r</tspan><tspan x="11.21" y="0">ee</tspan></text><text class="cls-19" transform="translate(209.43 479.94)">neut<tspan class="cls-21" x="15.74" y="0">r</tspan><tspan class="cls-22" x="18.83" y="0">al</tspan></text><text class="cls-23" transform="translate(299.27 479.94)">di<tspan class="cls-24" x="6.41" y="0">s</tspan><tspan class="cls-22" x="10.06" y="0">ag</tspan><tspan class="cls-25" x="18.22" y="0">r</tspan><tspan class="cls-22" x="21.27" y="0">ee</tspan></text></svg>